<svg width="32" height="32" viewBox="0 0 32 32" fill="none" xmlns="http://www.w3.org/2000/svg">
<rect width="32" height="32" rx="16" fill="#ECEEFE"/>
<mask id="mask0_392_2857" style="mask-type:alpha" maskUnits="userSpaceOnUse" x="4" y="4" width="24" height="24">
<rect x="4" y="4" width="24" height="24" fill="#D9D9D9"/>
</mask>
<g mask="url(#mask0_392_2857)">
<path d="M23.3 18.2001C22.9333 18.2001 22.621 18.0708 22.363 17.8121C22.1043 17.5541 21.975 17.2418 21.975 16.8751V15.1501H20.25C19.8833 15.1501 19.5707 15.0208 19.312 14.7621C19.054 14.5041 18.925 14.1918 18.925 13.8251C18.925 13.4584 19.054 13.1458 19.312 12.8871C19.5707 12.6291 19.8833 12.5001 20.25 12.5001H21.975V10.7751C21.975 10.4084 22.1043 10.0958 22.363 9.8371C22.621 9.5791 22.9333 9.4501 23.3 9.4501C23.6667 9.4501 23.9793 9.5791 24.238 9.8371C24.496 10.0958 24.625 10.4084 24.625 10.7751V12.5001H26.35C26.7167 12.5001 27.0293 12.6291 27.288 12.8871C27.546 13.1458 27.675 13.4584 27.675 13.8251C27.675 14.1918 27.546 14.5041 27.288 14.7621C27.0293 15.0208 26.7167 15.1501 26.35 15.1501H24.625V16.8751C24.625 17.2418 24.496 17.5541 24.238 17.8121C23.9793 18.0708 23.6667 18.2001 23.3 18.2001ZM13.075 15.7001C11.8083 15.7001 10.7333 15.2584 9.85001 14.3751C8.96668 13.4918 8.52501 12.4168 8.52501 11.1501C8.52501 9.88343 8.96668 8.80843 9.85001 7.9251C10.7333 7.04176 11.8083 6.6001 13.075 6.6001C14.3417 6.6001 15.4167 7.04176 16.3 7.9251C17.1833 8.80843 17.625 9.88343 17.625 11.1501C17.625 12.4168 17.1833 13.4918 16.3 14.3751C15.4167 15.2584 14.3417 15.7001 13.075 15.7001ZM5.62501 25.5251C5.25835 25.5251 4.95001 25.4001 4.70001 25.1501C4.45001 24.9001 4.32501 24.5918 4.32501 24.2251V21.9501C4.32501 21.2668 4.48735 20.6501 4.81201 20.1001C5.13735 19.5501 5.57501 19.1334 6.12501 18.8501C7.22501 18.2834 8.35835 17.8584 9.52501 17.5751C10.6917 17.2918 11.875 17.1501 13.075 17.1501C14.275 17.1501 15.4583 17.2918 16.625 17.5751C17.7917 17.8584 18.925 18.2834 20.025 18.8501C20.575 19.1334 21.0123 19.5501 21.337 20.1001C21.6623 20.6501 21.825 21.2668 21.825 21.9501V24.2251C21.825 24.5918 21.7 24.9001 21.45 25.1501C21.2 25.4001 20.8917 25.5251 20.525 25.5251H5.62501ZM6.97501 22.8751H19.175V21.9501C19.175 21.7668 19.146 21.6168 19.088 21.5001C19.0293 21.3834 18.95 21.3001 18.85 21.2501C17.9333 20.8001 16.9793 20.4461 15.988 20.1881C14.996 19.9294 14.025 19.8001 13.075 19.8001C12.125 19.8001 11.154 19.9294 10.162 20.1881C9.17068 20.4461 8.21668 20.8001 7.30001 21.2501C7.20001 21.3001 7.12068 21.3834 7.06201 21.5001C7.00401 21.6168 6.97501 21.7668 6.97501 21.9501V22.8751ZM13.075 13.0501C13.6083 13.0501 14.0583 12.8668 14.425 12.5001C14.7917 12.1334 14.975 11.6834 14.975 11.1501C14.975 10.6168 14.7917 10.1668 14.425 9.8001C14.0583 9.43343 13.6083 9.2501 13.075 9.2501C12.5417 9.2501 12.0917 9.43343 11.725 9.8001C11.3583 10.1668 11.175 10.6168 11.175 11.1501C11.175 11.6834 11.3583 12.1334 11.725 12.5001C12.0917 12.8668 12.5417 13.0501 13.075 13.0501Z" fill="#797EF3"/>
</g>
</svg>
